<svg width="25" height="21" viewBox="0 0 25 21" fill="none" xmlns="http://www.w3.org/2000/svg">
<g clip-path="url(#clip0_25_247)">
<path d="M7.862 20.2231C17.296 20.2231 22.456 12.5295 22.456 5.85756C22.456 5.63903 22.451 5.42149 22.441 5.20493C23.442 4.49227 24.313 3.6034 25 2.5905C24.081 2.99212 23.092 3.26281 22.054 3.38487C23.113 2.75981 23.926 1.77054 24.309 0.592275C23.318 1.17107 22.22 1.59139 21.052 1.81779C20.117 0.837378 18.784 0.223145 17.309 0.223145C14.476 0.223145 12.179 2.48419 12.179 5.27187C12.179 5.66856 12.224 6.05344 12.312 6.42257C8.049 6.21192 4.269 4.20287 1.74 1.14745C1.299 1.89358 1.045 2.7608 1.045 3.6851C1.045 5.43724 1.951 6.98267 3.327 7.88728C2.486 7.86169 1.695 7.63431 1.004 7.25533C1.003 7.276 1.003 7.29766 1.003 7.31932C1.003 9.76444 2.771 11.806 5.118 12.2686C4.687 12.3838 4.234 12.4458 3.766 12.4458C3.436 12.4458 3.114 12.4133 2.802 12.3543C3.455 14.3604 5.348 15.8202 7.594 15.8605C5.838 17.215 3.627 18.0221 1.224 18.0221C0.81 18.0221 0.402 17.9985 0 17.9523C2.27 19.3845 4.965 20.2202 7.862 20.2202" fill="#ADADAD"/>
</g>
<defs>
<clipPath id="clip0_25_247">
<rect width="25" height="20" fill="white" transform="translate(0 0.223145)"/>
</clipPath>
</defs>
</svg>
