<svg width="24" height="25" viewBox="0 0 24 25" fill="none" xmlns="http://www.w3.org/2000/svg">
<g clip-path="url(#clip0_25_239)">
<path d="M12 2.38525C15.2044 2.38525 15.5835 2.39763 16.8492 2.45527C18.0191 2.50862 18.6545 2.70392 19.0775 2.86826C19.6377 3.08595 20.0373 3.34603 20.4574 3.76569C20.8776 4.18582 21.1377 4.58547 21.3549 5.14565C21.5192 5.56864 21.7145 6.20408 21.7679 7.37397C21.8255 8.63914 21.8379 9.01878 21.8379 12.2231C21.8379 15.4275 21.8255 15.8067 21.7679 17.0723C21.7145 18.2422 21.5192 18.8776 21.3549 19.3006C21.1372 19.8608 20.8771 20.2605 20.4574 20.6806C20.0373 21.1007 19.6377 21.3608 19.0775 21.578C18.6545 21.7423 18.0191 21.9376 16.8492 21.991C15.584 22.0486 15.2044 22.061 12 22.061C8.79565 22.061 8.41601 22.0486 7.15084 21.991C5.98095 21.9376 5.34551 21.7423 4.92252 21.578C4.36234 21.3603 3.96269 21.1002 3.54255 20.6806C3.12242 20.2605 2.86234 19.8608 2.64513 19.3006C2.48079 18.8776 2.28549 18.2422 2.23214 17.0723C2.1745 15.8071 2.16212 15.4275 2.16212 12.2231C2.16212 9.01878 2.1745 8.63962 2.23214 7.37397C2.28549 6.20408 2.48079 5.56864 2.64513 5.14565C2.86281 4.58547 3.1229 4.18582 3.54255 3.76569C3.96221 3.34555 4.36234 3.08547 4.92252 2.86826C5.34551 2.70392 5.98095 2.50862 7.15084 2.45527C8.41601 2.39763 8.79565 2.38525 12 2.38525ZM12 0.223133C8.74087 0.223133 8.33217 0.236947 7.05224 0.295537C5.77517 0.35365 4.90251 0.556572 4.13941 0.853333C3.35011 1.1601 2.68085 1.57023 2.01397 2.23758C1.34662 2.90494 0.936488 3.57372 0.629724 4.36302C0.333439 5.12612 0.130518 5.9983 0.0724039 7.27537C0.0138139 8.5553 0 8.964 0 12.2231C0 15.4823 0.0138139 15.891 0.0724039 17.1709C0.130518 18.448 0.333439 19.3206 0.6302 20.0837C0.936964 20.873 1.34709 21.5423 2.01445 22.2092C2.6818 22.8765 3.35059 23.2866 4.13989 23.5934C4.90299 23.8902 5.77564 24.0931 7.05272 24.1512C8.33265 24.2098 8.74135 24.2236 12.0005 24.2236C15.2596 24.2236 15.6683 24.2098 16.9482 24.1512C18.2253 24.0931 19.098 23.8902 19.8611 23.5934C20.6504 23.2866 21.3196 22.8765 21.9865 22.2092C22.6539 21.5418 23.064 20.873 23.3708 20.0837C23.6675 19.3206 23.8704 18.448 23.9286 17.1709C23.9871 15.891 24.001 15.4823 24.001 12.2231C24.001 8.964 23.9871 8.5553 23.9286 7.27537C23.8704 5.9983 23.6675 5.12564 23.3708 4.36254C23.064 3.57324 22.6539 2.90398 21.9865 2.23711C21.3192 1.56975 20.6504 1.15962 19.8611 0.852856C19.098 0.556096 18.2253 0.353174 16.9482 0.29506C15.6683 0.23647 15.2596 0.222656 12.0005 0.222656L12 0.223133Z" fill="#ADADAD"/>
<path d="M11.9998 6.06104C8.59638 6.06104 5.83789 8.82001 5.83789 12.223C5.83789 15.626 8.59686 18.3849 11.9998 18.3849C15.4028 18.3849 18.1618 15.626 18.1618 12.223C18.1618 8.82001 15.4028 6.06104 11.9998 6.06104ZM11.9998 16.2233C9.79057 16.2233 8 14.4323 8 12.2235C8 10.0147 9.79105 8.22363 11.9998 8.22363C14.2086 8.22363 15.9997 10.0147 15.9997 12.2235C15.9997 14.4323 14.2086 16.2233 11.9998 16.2233Z" fill="#ADADAD"/>
<path d="M18.4058 7.2574C19.2011 7.2574 19.8458 6.6127 19.8458 5.81742C19.8458 5.02214 19.2011 4.37744 18.4058 4.37744C17.6105 4.37744 16.9658 5.02214 16.9658 5.81742C16.9658 6.6127 17.6105 7.2574 18.4058 7.2574Z" fill="#ADADAD"/>
</g>
<defs>
<clipPath id="clip0_25_239">
<rect width="24" height="24" fill="white" transform="translate(0 0.223145)"/>
</clipPath>
</defs>
</svg>
